<svg width="32" height="32" viewBox="0 0 32 32" fill="none" xmlns="http://www.w3.org/2000/svg">
<path d="M5.69989 28.9172C5.59943 28.853 5.56803 28.7245 5.6371 28.6253C5.70617 28.5319 5.8443 28.5027 5.95104 28.5669C6.01382 28.6078 6.08289 28.6486 6.15823 28.6895C6.67309 28.9814 7.15655 29.1274 7.5521 29.1274C7.90999 29.1274 8.20509 28.9989 8.38717 28.7479C8.39973 28.7304 8.41229 28.7187 8.41229 28.707C8.46252 28.6253 8.50647 28.5436 8.53158 28.4618C8.58181 28.2925 8.57553 28.1174 8.50019 27.9597C8.42484 27.7904 8.26788 27.6328 8.02929 27.4985C7.87232 27.4109 7.6714 27.3292 7.43281 27.265C6.82378 27.1073 6.37799 26.8797 6.13312 26.5819C5.86941 26.2491 5.85058 25.8521 6.13312 25.3675C6.32148 25.0464 6.70448 24.8479 7.19422 24.8129C7.61489 24.7837 8.12347 24.8771 8.63832 25.1223C8.75134 25.1749 8.79529 25.3033 8.73878 25.4026C8.68227 25.5077 8.54414 25.5485 8.4374 25.496C7.99789 25.2858 7.57722 25.2099 7.23189 25.2333C6.89912 25.2566 6.64169 25.3792 6.53495 25.5719C6.34659 25.893 6.34659 26.144 6.50356 26.3367C6.67936 26.5585 7.04981 26.7337 7.55838 26.868C7.83465 26.938 8.06696 27.0373 8.2616 27.1482C8.58181 27.3292 8.79529 27.5569 8.9083 27.8021C9.0276 28.0531 9.04016 28.3275 8.95853 28.5844C8.92086 28.7012 8.86435 28.8238 8.78901 28.9347C8.77017 28.9581 8.75762 28.9814 8.75134 28.9931C8.48135 29.3668 8.0544 29.5536 7.53955 29.5536C7.06237 29.5536 6.50356 29.3901 5.91336 29.0573C5.85685 29.0106 5.78151 28.9697 5.69989 28.9172Z" fill="#EA501F"/>
<path d="M9.71191 25.0114C9.71191 24.9005 9.81237 24.8129 9.93795 24.8129C10.0635 24.8129 10.164 24.9005 10.164 25.0114V29.3493C10.164 29.4602 10.0635 29.5478 9.93795 29.5478C9.81237 29.5478 9.71191 29.4602 9.71191 29.3493V25.0114Z" fill="#EA501F"/>
<path d="M10.1766 27.7145C10.095 27.8021 9.95686 27.8196 9.8564 27.7437C9.76222 27.6678 9.74338 27.5394 9.825 27.446C10.1703 27.0548 10.5596 26.8154 10.9426 26.7103C11.2189 26.6344 11.4889 26.6286 11.7212 26.687C11.966 26.7512 12.1795 26.8796 12.3302 27.0781C12.4746 27.265 12.5562 27.5043 12.5562 27.7904V29.3434C12.5562 29.4602 12.4558 29.5536 12.3302 29.5536C12.2046 29.5536 12.1042 29.4602 12.1042 29.3434V27.7904C12.1042 27.5919 12.0539 27.4343 11.966 27.3175C11.8781 27.2066 11.7588 27.1307 11.6082 27.0898C11.4512 27.049 11.2691 27.0548 11.0745 27.1073C10.7731 27.1949 10.4592 27.3934 10.1766 27.7145Z" fill="#EA501F"/>
<path d="M14.7729 26.6461C15.2061 26.6461 15.5954 26.8096 15.8779 27.0723C16.1605 27.3351 16.3363 27.697 16.3363 28.0999C16.3363 28.5027 16.1605 28.8647 15.8779 29.1274C15.5954 29.3901 15.2061 29.5536 14.7729 29.5536C14.3396 29.5536 13.9504 29.3901 13.6678 29.1274C13.3853 28.8647 13.2095 28.5027 13.2095 28.0999C13.2095 27.697 13.3853 27.3351 13.6678 27.0723C13.9504 26.8096 14.3459 26.6461 14.7729 26.6461ZM15.564 27.3643C15.3631 27.1774 15.0805 27.0607 14.7729 27.0607C14.4652 27.0607 14.189 27.1774 13.9818 27.3643C13.7808 27.5511 13.6553 27.8138 13.6553 28.0999C13.6553 28.386 13.7808 28.6487 13.9818 28.8355C14.1827 29.0223 14.4652 29.1391 14.7729 29.1391C15.0805 29.1391 15.3568 29.0223 15.564 28.8355C15.7649 28.6487 15.8905 28.386 15.8905 28.0999C15.8905 27.8138 15.7649 27.5511 15.564 27.3643Z" fill="#EA501F"/>
<path d="M16.9761 26.8563C16.9761 26.7396 17.0765 26.6461 17.2021 26.6461C17.3277 26.6461 17.4281 26.7396 17.4281 26.8563V27.119C17.447 27.1015 17.4595 27.084 17.4784 27.0723C17.7609 26.8096 18.1502 26.6461 18.5834 26.6461C19.0167 26.6461 19.4059 26.8096 19.6885 27.0723C19.971 27.3351 20.1468 27.697 20.1468 28.0999C20.1468 28.5027 19.971 28.8647 19.6885 29.1274C19.4059 29.3901 19.0167 29.5536 18.5834 29.5536C18.1502 29.5536 17.7609 29.3901 17.4784 29.1274C17.4595 29.1099 17.447 29.0924 17.4281 29.0807V30.9898C17.4281 31.1066 17.3277 31.2 17.2021 31.2C17.0765 31.2 16.9761 31.1066 16.9761 30.9898V26.8563ZM19.3683 27.3643C19.1673 27.1774 18.8848 27.0607 18.5771 27.0607C18.2695 27.0607 17.9932 27.1774 17.786 27.3643C17.5851 27.5511 17.4595 27.8138 17.4595 28.0999C17.4595 28.386 17.5851 28.6487 17.786 28.8355C17.9869 29.0223 18.2695 29.1391 18.5771 29.1391C18.8848 29.1391 19.1611 29.0223 19.3683 28.8355C19.5692 28.6487 19.6948 28.386 19.6948 28.0999C19.6948 27.8138 19.5692 27.5511 19.3683 27.3643Z" fill="#EA501F"/>
<path d="M22.2696 26.6461C22.6526 26.6461 23.0042 26.7863 23.2617 27.0315C23.4751 27.23 23.563 27.4285 23.6384 27.6387C23.833 28.2283 23.4626 28.205 23.3496 28.205H21.2713C21.2901 28.3451 21.3278 28.4735 21.3718 28.5903C21.4534 28.7713 21.5727 28.9056 21.7234 28.999C21.8803 29.0924 22.0813 29.1391 22.3136 29.1391C22.5647 29.1391 22.8598 29.0749 23.1863 28.9464C23.2993 28.8997 23.4312 28.9523 23.4814 29.0574C23.5316 29.1624 23.4751 29.285 23.3621 29.3318C22.9854 29.4777 22.6338 29.5478 22.3199 29.5536C21.9996 29.5594 21.7171 29.4894 21.4848 29.3493C21.2525 29.2091 21.0516 29.0165 20.9574 28.7479C20.7439 28.1583 20.7376 27.5744 21.2776 27.0315C21.5287 26.7804 21.8866 26.6461 22.2696 26.6461ZM22.9477 27.3292C22.7656 27.1658 22.5271 27.0665 22.2696 27.0665C22.0122 27.0665 21.7736 27.1658 21.5915 27.3292C21.4597 27.4518 21.3529 27.6036 21.2964 27.7788H23.2491C23.18 27.6036 23.0796 27.4518 22.9477 27.3292Z" fill="#EA501F"/>
<path d="M25.6974 26.6461C26.0804 26.6461 26.432 26.7863 26.6894 27.0315C26.9029 27.23 26.9908 27.4285 27.0661 27.6387C27.2608 28.2283 26.8903 28.205 26.7773 28.205H24.699C24.7179 28.3451 24.7556 28.4735 24.7995 28.5903C24.8811 28.7713 25.0004 28.9056 25.1511 28.999C25.3081 29.0924 25.509 29.1391 25.7413 29.1391C25.9925 29.1391 26.2876 29.0749 26.614 28.9464C26.7271 28.8997 26.8589 28.9523 26.9091 29.0574C26.9594 29.1624 26.9029 29.285 26.7899 29.3318C26.4131 29.4777 26.0615 29.5478 25.7476 29.5536C25.4274 29.5594 25.1448 29.4894 24.9125 29.3493C24.6802 29.2091 24.4793 29.0165 24.3851 28.7479C24.1716 28.1583 24.1654 27.5744 24.7053 27.0315C24.9565 26.7804 25.3144 26.6461 25.6974 26.6461ZM26.3755 27.3292C26.1934 27.1658 25.9548 27.0665 25.6974 27.0665C25.4399 27.0665 25.2013 27.1658 25.0193 27.3292C24.8874 27.4518 24.7807 27.6036 24.7242 27.7788H26.6768C26.6078 27.6036 26.5073 27.4518 26.3755 27.3292Z" fill="#EA501F"/>
<path d="M7.28821 7.66596H12.0161C12.1605 6.17721 12.6063 4.84024 13.2467 3.80687C14.0943 2.44072 15.2998 1.60001 16.6623 1.60001C18.0248 1.60001 19.224 2.44655 20.0779 3.80687C20.7184 4.8344 21.1641 6.17721 21.3086 7.66596H26.0301C26.5889 7.66596 27.0912 8.09216 27.0473 8.61176L26.0992 20.913C25.9799 22.4543 24.9376 23.3359 23.4245 23.3359H9.90015C8.21746 23.3359 7.32588 22.2441 7.22542 20.913L6.27106 8.6176C6.23339 8.098 6.7294 7.66596 7.28821 7.66596ZM13.1965 7.66596H20.1156C19.9775 6.37571 19.5945 5.23141 19.0482 4.35567C18.4203 3.33397 17.5664 2.6976 16.6623 2.6976C15.7519 2.6976 14.9043 3.33397 14.2638 4.36151C13.7176 5.23141 13.3409 6.38155 13.1965 7.66596Z" fill="#EA501F"/>
<path d="M13.2281 19.0214C13.0083 18.8813 12.9518 18.6069 13.1025 18.4025C13.2532 18.1982 13.5483 18.1456 13.768 18.2857C13.9062 18.3733 14.0506 18.4609 14.2076 18.5485C15.3126 19.1732 16.3298 19.4826 17.1774 19.4826C17.9434 19.4826 18.565 19.214 18.9605 18.6711C18.9856 18.6302 19.0108 18.6069 19.017 18.5893C19.1301 18.42 19.2117 18.239 19.2682 18.0639C19.3812 17.7019 19.3624 17.3283 19.2054 16.9897C19.0359 16.6335 18.7094 16.2891 18.2008 16.003C17.8618 15.8103 17.4411 15.641 16.9325 15.5126C15.6391 15.174 14.6847 14.6952 14.1699 14.053C13.6048 13.3466 13.5609 12.4942 14.1636 11.4608C14.5654 10.7777 15.388 10.3515 16.4302 10.2756C17.3281 10.2114 18.408 10.4099 19.5068 10.9295C19.7454 11.0405 19.8396 11.309 19.714 11.5309C19.5884 11.7527 19.3059 11.8403 19.0673 11.7235C18.1317 11.2798 17.2402 11.1105 16.4993 11.1631C15.7898 11.2156 15.2498 11.4725 15.0112 11.8812C14.6094 12.5642 14.6157 13.1014 14.9422 13.51C15.3189 13.9829 16.1037 14.3508 17.1962 14.6368C17.7864 14.7945 18.2887 14.993 18.7031 15.2265C19.3875 15.6118 19.8458 16.0964 20.0907 16.6218C20.3418 17.1648 20.3732 17.737 20.2037 18.2974C20.1284 18.5485 20.0091 18.7995 19.8458 19.0447C19.8082 19.0973 19.783 19.1381 19.7642 19.1673C19.1803 19.9672 18.2824 20.3642 17.1899 20.37C16.1665 20.37 14.9736 20.0197 13.7178 19.3074C13.5609 19.2257 13.3976 19.1323 13.2281 19.0214Z" fill="white"/>
</svg>
