<svg width="15" height="10" viewBox="0 0 15 10" fill="none" xmlns="http://www.w3.org/2000/svg">
<path d="M14.9997 1.13646C15.0046 0.914927 14.9404 0.697379 14.8158 0.514061C14.6912 0.330744 14.5125 0.190766 14.3046 0.11359C14.0968 0.0364135 13.87 0.0258732 13.6559 0.0834339C13.4418 0.140995 13.251 0.263796 13.1099 0.434766L7.51744 6.95824L1.92691 0.434766C1.83993 0.316498 1.7295 0.217451 1.60243 0.143828C1.47537 0.0702054 1.33442 0.0235932 1.18849 0.0069099C1.04256 -0.00977342 0.894792 0.003832 0.75437 0.046874C0.613949 0.0899159 0.483892 0.161467 0.372423 0.257047C0.260955 0.352627 0.170536 0.470176 0.106635 0.602334C0.0427344 0.734491 0.00684434 0.87841 0.00118139 1.02508C-0.00448156 1.17174 0.0201375 1.318 0.073658 1.45468C0.127178 1.59137 0.208362 1.71554 0.312129 1.81942L6.70691 9.28819C6.80707 9.40548 6.9314 9.49967 7.07151 9.56425C7.21162 9.62883 7.36413 9.66227 7.51843 9.66227C7.67273 9.66227 7.82523 9.62883 7.96534 9.56425C8.10546 9.49967 8.2299 9.40548 8.33007 9.28819L14.731 1.81942C14.8987 1.63074 14.994 1.38874 15 1.13646H14.9997Z" fill="#171725"/>
</svg>
